<svg xmlns="http://www.w3.org/2000/svg" viewBox="0 0 310 350"><title>SCS_logo</title><polygon points="73.515 68.795 75.324 66.985 236.485 228.147 234.676 229.956 73.515 68.795 73.515 68.795" fill="#eaeaea"/><polygon points="236.485 68.795 234.676 66.985 73.515 228.147 75.324 229.956 236.485 68.795 236.485 68.795" fill="#eaeaea"/><path d="M174.225,191.554a4.493,4.493,0,0,1-1.126,1.813,18.131,18.131,0,0,1-2.675,2.339q-1.246.937-2.5,1.868c-0.027.02-.056,0.037-0.111,0.072,0.044-.391.087-0.755,0.127-1.121,0.026-.234.061-0.468,0.065-0.7a0.268,0.268,0,0,1,.178-0.266,12.89,12.89,0,0,0,2.695-1.708,5.979,5.979,0,0,0,2.095-3.119,0.846,0.846,0,0,1,.2-0.26h0.208a1.176,1.176,0,0,1,.83.874v0.208h0.007Z" fill="#eaeaea"/><path d="M163.277,197.871c-0.34.911-.679,1.824-1.022,2.734-0.166.44-.334,0.879-0.516,1.312a0.729,0.729,0,0,1-.231.3q-3.038,2.172-6.084,4.336c-0.067.048-.132,0.1-0.21,0.157,0.138,0.176.257,0.357,0.4,0.511a1.589,1.589,0,0,1,.34,1.568,3.505,3.505,0,0,1-1.211,1.985c-2.2,1.776-4.38,3.566-6.6,5.316-3.468,2.739-6.958,5.451-10.443,8.168-1.006.785-2.029,1.551-3.044,2.325-0.049.038-.1,0.07-0.168,0.116l-0.964-1.228q-0.646-.83-1.3-1.653a1.753,1.753,0,0,1,.113-2.476l0.033-.029a17.566,17.566,0,0,1,1.4-1.147q6.168-4.869,12.339-9.732c3.475-2.73,6.948-5.463,10.454-8.154a60.046,60.046,0,0,1,5.975-4.079c0.225-.133.461-0.25,0.689-0.374Zm-10.13,8.049c-0.042.032-.07,0.052-0.092,0.072l-3.321,2.615-10.963,8.648-5.7,4.5a1.341,1.341,0,0,0-.525.753,0.917,0.917,0,0,0,.219.841,1.839,1.839,0,0,1,.684-1.442q4.3-3.367,8.579-6.763,5.187-4.092,10.377-8.183a1.042,1.042,0,0,1,1.357-.082c0.053,0.031.107,0.059,0.161,0.092l0.021-.033Z" fill="#eaeaea"/><path d="M152.005,234.323l-4.745-3.157a215.136,215.136,0,0,0,14.556-27.592l3.958,1.344c-0.193.7-.375,1.394-0.572,2.083a83.3,83.3,0,0,1-6.918,16.541c-1.921,3.569-3.919,7.094-6.1,10.509C152.129,234.138,152.072,234.224,152.005,234.323Z" fill="#eaeaea"/><path d="M150.115,237.082a10.909,10.909,0,0,1-2.538,2.675,3.6,3.6,0,0,1-1.452.639,2.214,2.214,0,0,1-2.7-1.557,2.457,2.457,0,0,1,.125-1.528,10.846,10.846,0,0,1,1.369-2.555c0.172-.258.351-0.513,0.534-0.781Zm-4.173-.116a0.9,0.9,0,0,0-.922.87q0,0.021,0,.043a0.91,0.91,0,0,0,.9.922h0a0.922,0.922,0,0,0,.929-0.916v-0.006a0.91,0.91,0,0,0-.906-0.913h0Z" fill="#eaeaea"/><path d="M166.5,201.632l-3.444-1.172c0.24-.67.479-1.323,0.708-1.98,0.394-1.127.766-2.263,1.183-3.382a5.371,5.371,0,0,1,.607-1.107,0.879,0.879,0,0,1,.95-0.409,0.964,0.964,0,0,1,.76.738,4.41,4.41,0,0,1,.11,1.691c-0.149,1.815-.492,3.6-0.818,5.391C166.543,201.48,166.519,201.552,166.5,201.632Zm-1.859-3.643a0.922,0.922,0,0,0,.915.93h0a0.923,0.923,0,1,0-.917-0.932v0Z" fill="#eaeaea"/><path d="M146.463,232.423l0.591-.933,4.745,3.156-0.611.922Z" fill="#eaeaea"/><path d="M150.97,235.884l-0.626.888-4.681-3.113,0.592-.911Z" fill="#eaeaea"/><path d="M166.112,203.481l-0.253,1.061-3.906-1.327,0.411-1.008Z" fill="#eaeaea"/><path d="M162.509,201.849l0.406-1.029,3.516,1.2-0.233,1.087Z" fill="#eaeaea"/><path d="M144.512,55.188c0.287,0.35.593,0.687,0.858,1.053a62.8,62.8,0,0,1,3.97,6.567c2.93,5.293,5.475,10.779,8.148,16.2,1.346,2.73,2.648,5.484,4.057,8.182a36.008,36.008,0,0,0,5.594,7.936,1.184,1.184,0,0,0,1.463.393,5.543,5.543,0,0,1,7.182,4.151,5.724,5.724,0,1,1-11.143,2.624q-0.027-.116-0.05-0.233a5.655,5.655,0,0,1,1.084-4.542,0.387,0.387,0,0,0,.055-0.331A29.972,29.972,0,0,0,160.8,89.87a9.245,9.245,0,0,0-3.126-2.3c-0.308-.127-0.643-0.192-0.946-0.328a0.654,0.654,0,0,1-.278-0.345c-1.041-2.637-2.1-5.267-3.1-7.92q-4.422-11.706-8.8-23.427c-0.037-.1-0.068-0.2-0.1-0.3Zm25.769,41.456a4.329,4.329,0,1,0,.081,0h-0.081ZM158.22,83.579a0.862,0.862,0,1,0-1.724-.006h0A0.862,0.862,0,1,0,158.22,83.579Z" fill="#eaeaea"/><path d="M140.992,105.565a6.388,6.388,0,0,1-2.386,1.76,5.415,5.415,0,0,1-3.566.229,3.312,3.312,0,0,1-.516-0.192,0.672,0.672,0,0,1-.427-0.849l0.007-.02a0.787,0.787,0,0,1,.958-0.4,4.1,4.1,0,0,0,4.636-1.207c0.045-.047.087-0.1,0.128-0.148,0.02-.025.036-0.054,0.069-0.1-0.056-.08-0.113-0.168-0.177-0.252a5.54,5.54,0,0,1-1.14-3.327,5.763,5.763,0,0,1,4.1-5.567,5.493,5.493,0,0,1,3.692.184,0.484,0.484,0,0,0,.616-0.119,31.217,31.217,0,0,0,4.864-6.3c0.775-1.3,1.437-2.669,2.148-4.008,0.066-.123.125-0.25,0.2-0.391l1.307,3.278c-0.666.636-1.357,1.231-1.973,1.9a32.61,32.61,0,0,0-4.312,6.3,1.4,1.4,0,0,0,.022,1.7,5.686,5.686,0,0,1-4.062,8.562,5.57,5.57,0,0,1-4.023-.918A0.721,0.721,0,0,0,140.992,105.565Zm3.213-8.921a4.2,4.2,0,1,0,.04,0H144.2Z" fill="#eaeaea"/><path d="M160.236,81.631c-0.1-.2-0.2-0.386-0.284-0.569-0.617-1.253-1.238-2.5-1.844-3.764a0.542,0.542,0,0,1-.01-0.415c2.846-5.857,5.7-11.709,8.991-17.336,0.764-1.309,1.656-2.543,2.5-3.8a5.136,5.136,0,0,1,.5-0.555l0.08,0.041Z" fill="#eaeaea"/><path d="M80.677,151.131a25.559,25.559,0,0,1-.192,3.487H71.205l-0.1-.512a8.674,8.674,0,0,1,1.36-.832V145.05l-1.216-.208,0.016-.88h9.36a11.639,11.639,0,0,1-.064,1.623,14.433,14.433,0,0,1-.271,1.816h-1.84l-0.32-1.7-2.3-.159V148.6l3.248-.272v1.84l-3.248-.128V153l2.384-.208,0.624-1.808Z" fill="#eaeaea"/><path d="M93.141,151.578A2.894,2.894,0,0,1,91.925,154a5.107,5.107,0,0,1-3.168.921,10.7,10.7,0,0,1-2.176-.248,8.782,8.782,0,0,1-2.064-.681l0.017-.031-0.017-.448a9.919,9.919,0,0,1,.336-2.752h1.44l1.3,2.384a6.1,6.1,0,0,0,1.424.288,1.16,1.16,0,0,0,.832-1.057,1.694,1.694,0,0,0-1.184-1.359l-1.729-.816-0.687-.384a3.172,3.172,0,0,1-1.761-2.768,2.95,2.95,0,0,1,1.248-2.465,5.245,5.245,0,0,1,3.248-.943,11.214,11.214,0,0,1,1.937.184,8.644,8.644,0,0,1,1.744.473,16.551,16.551,0,0,1-.385,3.168H90.6l-0.784-2.08a5.155,5.155,0,0,0-1.5-.3,1.26,1.26,0,0,0-.7,1.12,0.918,0.918,0,0,0,.385.729,12.554,12.554,0,0,0,2.111,1.08,6.169,6.169,0,0,1,2.384,1.615A3.105,3.105,0,0,1,93.141,151.578Z" fill="#eaeaea"/><path d="M106.885,143.866l0.017,0.368q0,0.721-.112,1.856a17.747,17.747,0,0,1-.256,1.823h-1.712l-0.256-2.464-1.424-.16v8.192l1.472,0.256-0.016.88h-6.24l-0.1-.512a8.294,8.294,0,0,1,1.521-.9v-7.92l-1.456.16-0.256,2.464h-1.7a16.812,16.812,0,0,1-.368-3.6l0.017-.448,5.456,0.064,5.392-.064h0.016Z" fill="#eaeaea"/><path d="M112.82,155.339a4.753,4.753,0,0,1-1.08-.656,4.605,4.605,0,0,1-.9-0.88,4.46,4.46,0,0,1,1.6-1.952,4.126,4.126,0,0,1,1.04.664,5.768,5.768,0,0,1,.864.872,4.543,4.543,0,0,1-.64,1.088A3.947,3.947,0,0,1,112.82,155.339Z" fill="#eaeaea"/><path d="M205.792,151.082a14.541,14.541,0,0,1-.592,3.536l-0.368-.016v0.016h-7.456l-0.352-1.567,3.424-3.633a4.7,4.7,0,0,0,1.472-2.624,1.294,1.294,0,0,0-.359-0.943,1.606,1.606,0,0,0-1.032-.433L199.6,148.41h-2.031a10.421,10.421,0,0,1-.353-2.96l0.017-.448a7.721,7.721,0,0,1,3.92-1.1,4.395,4.395,0,0,1,2.9.936,2.941,2.941,0,0,1,1.129,2.36,3.471,3.471,0,0,1-.576,1.84,13.225,13.225,0,0,1-2,2.3l-1.937,1.888,0.064,0.112,2.208-.465,1.5-2.159Z" fill="#eaeaea"/><path d="M208.241,149.4a5.832,5.832,0,0,1,1.319-3.928,4.365,4.365,0,0,1,6.641-.024,5.835,5.835,0,0,1,1.3,3.937,6.075,6.075,0,0,1-1.248,3.983,4.087,4.087,0,0,1-3.328,1.521,4.214,4.214,0,0,1-3.392-1.544A5.925,5.925,0,0,1,208.241,149.4Zm4.079-3.776a3.518,3.518,0,0,0-.527,1.456,11.726,11.726,0,0,0-.192,2.16,8.885,8.885,0,0,0,.393,2.776,1.36,1.36,0,0,0,1.159,1.191,1.019,1.019,0,0,0,.353-0.063,4.05,4.05,0,0,0,.5-1.448,11.234,11.234,0,0,0,.184-2.088,9.094,9.094,0,0,0-.392-2.824,1.359,1.359,0,0,0-1.144-1.191Z" fill="#eaeaea"/><path d="M227.345,153.738l-0.032.88h-7.136l-0.1-.512a7.706,7.706,0,0,1,2.176-.928v-6.3l-1.872.736-0.592-1.152,4.352-2.56,1.328,0.976V153.4Z" fill="#eaeaea"/><path d="M234.368,148.09a4.323,4.323,0,0,1,2.776.976,2.978,2.978,0,0,1,1.128,2.384A3.2,3.2,0,0,1,237.1,154a4.538,4.538,0,0,1-3.048,1,8.576,8.576,0,0,1-2.088-.279,7.5,7.5,0,0,1-2.023-.824l0.911-2.912a11.975,11.975,0,0,0,2.017,1.432,8.164,8.164,0,0,0,1.968.841,1.739,1.739,0,0,0,.544-1.232,1.415,1.415,0,0,0-.768-1.3,4.108,4.108,0,0,0-2.049-.44,4.325,4.325,0,0,0-1.247.192l-0.881-.96,0.465-5.3h5.855v0.016l1.024-.016,0.016,0.367a14.1,14.1,0,0,1-.112,1.624,9.392,9.392,0,0,1-.256,1.448h-1.968l-0.432-1.808-1.553-.1L233.28,148.2A3.694,3.694,0,0,1,234.368,148.09Z" fill="#eaeaea"/><path d="M43.9,55.388a7.579,7.579,0,0,1,1.63,6.8A12.607,12.607,0,0,1,40.9,69.1a25.339,25.339,0,0,1-4.723,3.017,17.487,17.487,0,0,1-5.111,1.747l-0.021-.093-0.84-.952a26.532,26.532,0,0,1-3.745-5.738L29.1,64.9l6.023,2.982a16.385,16.385,0,0,0,4.377-2.4,3.389,3.389,0,0,0-.256-3.9q-1.345-1.632-4.533-.977l-5.569,1.357-1.865.332q-5.181.765-7.953-2.6a7.51,7.51,0,0,1-1.535-6.849,13.189,13.189,0,0,1,4.8-7.081,25.723,25.723,0,0,1,8.006-4.519,41.589,41.589,0,0,1,4.455,6.8l-3,2.476L27.491,47.59a14.374,14.374,0,0,0-4.378,2.4,3.534,3.534,0,0,0,.55,3.658,2.812,2.812,0,0,0,2.521.964A26.282,26.282,0,0,0,31,53.607a33.794,33.794,0,0,1,5.322-1.126,9.8,9.8,0,0,1,4.079.393A7.554,7.554,0,0,1,43.9,55.388Z" fill="#eaeaea"/><path d="M65.7,49.07l1.082,1.964L53.95,58.421l-0.9-1.047a22.93,22.93,0,0,1,2.125-3.517L44.248,34.867l-3.076,1.186L40.09,34.089,52.407,27l0.9,1.046a18.7,18.7,0,0,1-2.124,3.517L62.047,50.441Z" fill="#eaeaea"/><path d="M90.622,30.223L93.2,36.938l-7.437,6.836-1.209.509a15.61,15.61,0,0,1-8.743,1.063,12.629,12.629,0,0,1-6.461-3.322A16.226,16.226,0,0,1,65.5,36.182a14.8,14.8,0,0,1,.192-11.852,15.66,15.66,0,0,1,9.164-8.179,15.924,15.924,0,0,1,9.534-.891l0.373,0.854a26.01,26.01,0,0,1,1.514,6.668L82.05,24.4l-3.057-4.311A19.3,19.3,0,0,0,72.24,21.5a9.7,9.7,0,0,0-1.161,5.066,17.148,17.148,0,0,0,1.176,5.846,12.328,12.328,0,0,0,5,6.487,7.586,7.586,0,0,0,6.934.536l2.176-1.06-1.923-5.017a25.786,25.786,0,0,1-4.51-.537L79.669,31.43l12.917-4.949,0.751,1.841Z" fill="#eaeaea"/><path d="M126.321,5.36a19.279,19.279,0,0,1-2.973,2.466l4.466,24.384-6.543,1.816-16-16.268,1.547,4.915,1.978,10.3,3.768-.12,0.381,2.21-12.089,2.32-0.5-1.281a22.835,22.835,0,0,1,3.156-2.63L99.382,12l-3.136.042-0.381-2.21,10.178-1.953-0.034.049L121.77,24.282,120.192,19.2l-2.05-10.677-4.24.125L113.521,6.44l12.3-2.361Z" fill="#eaeaea"/><path d="M165.514,28.241l0.015,2.242-14.336.361L150.905,29.5a23.768,23.768,0,0,1,3.335-1.988l-1.581-3.979-9.3.234-1.579,4.482,3.651,0.5,0.014,2.242-11.84.3-0.288-1.347a22.868,22.868,0,0,1,3.5-2.035L145.3,5.393l-0.678-1.718,6.554-1.857,11.277,26.035Zm-14.3-8.229-3.521-8.8-3.117,8.965Z" fill="#eaeaea"/><path d="M196.369,5.762a37.288,37.288,0,0,1-.7,4.539,51.4,51.4,0,0,1-1.236,5.115l-3.949-.462L190.54,9l-4.488-.95-2.536,21.722,4.038,1.153-0.3,2.222-15.545-1.815-0.1-1.374a26.776,26.776,0,0,1,4.363-1.619l2.473-21.176-4.629-.115L172.5,12.855l-3.907-.456a38.384,38.384,0,0,1,.15-8.585l0.189-1.256L182.7,4.336l13.632,1.422Z" fill="#eaeaea"/><path d="M234.348,17.59a18.8,18.8,0,0,1-4.009.9l-3.523,12.059q-1.963,6.565-5.8,8.617a11.252,11.252,0,0,1-8.751.617q-5.726-1.673-8.108-5.961t-0.85-10.142L207,11.053l-2.984-1.4,0.67-2.14L218.323,11.5l-0.136,1.371a18.742,18.742,0,0,1-4.009.9l-3.82,13.074q-1.08,3.7.012,6a6.343,6.343,0,0,0,7.477,3.065q2.251-1.368,3.869-6.758l3.7-12.668L222.2,14.966l0.669-2.14,11.613,3.393Z" fill="#eaeaea"/><path d="M257.353,55.976l-1.062,1.975-8.428-4.331L247.77,41.587l-2.5-1.238-3.577,6.96,2.871,2.094L243.5,51.377l-12.866-6.612,0.393-1.32a22.9,22.9,0,0,1,4.106-.125l10.036-19.525-2.609-1.864,1.063-1.975,12.909,6.254a13.324,13.324,0,0,1,6.279,6.058,7.731,7.731,0,0,1-3.37,10.49,9.648,9.648,0,0,1-5.054,1.041l0.847,10.661ZM247.066,36.849a9.747,9.747,0,0,0,1.971,1.347q4.44,2.281,6.779-2.271a6.525,6.525,0,0,0,.5-5.688L251.4,28.422Z" fill="#eaeaea"/><path d="M283.541,68.476a60.209,60.209,0,0,1-5.949,6.5L259.52,60.259l0.657-1.21a22.9,22.9,0,0,1,4.044.729l13.863-17.022-2.166-2.364,1.449-1.711,18.138,14.771-0.582.781a35.457,35.457,0,0,1-5.4,5.363l-3.28-2.671,2.135-3.826-5.02-4.688-5.4,6.625,7.31,5.025L282.382,63.6l-6.615-5.879-5.235,6.429,5.857,4.062,4.119-2.646Z" fill="#eaeaea"/><path d="M24.936,290.074a7.927,7.927,0,0,1,1.776,4.809,6.2,6.2,0,0,1-1.6,4.22,6.133,6.133,0,0,1-5.6,2.064,13.725,13.725,0,0,1-7.125-3.51L1.311,287.839l0.67-1.117a21.582,21.582,0,0,1,3.791.85l13.8-15.564-1.859-2.184,1.437-1.56q4.222,3.316,10.328,8.729a12.966,12.966,0,0,1,4.264,6.346A5.745,5.745,0,0,1,32.6,288.9a6.137,6.137,0,0,1-3.412,1.92A5.933,5.933,0,0,1,24.936,290.074Zm-11.492,3.978,0.423,0.428a3.7,3.7,0,0,0,3.067,1.063,4.4,4.4,0,0,0,2.715-1.5,4.888,4.888,0,0,0,1.26-3.32,4.126,4.126,0,0,0-1.367-3.19l-2.275-2.017-5.705,6.436Zm10.722-16.314-4.988,5.627,1.347,1.194a4.911,4.911,0,0,0,3.405,1.5,3.719,3.719,0,0,0,2.728-1.3,5.014,5.014,0,0,0,1.171-2.437,3.373,3.373,0,0,0-.391-2.484Z" fill="#eaeaea"/><path d="M51.849,322.421L50.7,324.2l-11.547-7.11,0.467-1.216a22.356,22.356,0,0,1,3.669.146l0.8-3.971L36.6,307.439l-3.564,2.737,2.635,2.28-1.146,1.784-9.536-5.873,0.467-1.216a21.594,21.594,0,0,1,3.825.2l18.343-13.46,0.35-1.711,6.152,1.909-4.5,26.45Zm-7.084-13.9,1.748-8.789-7.095,5.5Z" fill="#eaeaea"/><path d="M82.539,335.267L81.7,337.215l-8.3-3.384L72.323,322.5l-2.459-.96-2.795,6.852,2.877,1.736-0.838,1.947-12.666-5.167,0.261-1.275a21.571,21.571,0,0,1,3.858-.457L68.4,305.957l-2.612-1.541,0.838-1.947,12.677,4.825a12.6,12.6,0,0,1,6.416,5.188,7.311,7.311,0,0,1-2.31,10.16,9.119,9.119,0,0,1-4.674,1.4l1.678,9.973ZM71.269,318.1a9.213,9.213,0,0,0,1.969,1.105q4.37,1.783,6.2-2.7a6.171,6.171,0,0,0,0-5.4l-4.782-1.3Z" fill="#eaeaea"/><path d="M110.922,330.209a7.926,7.926,0,0,1,3.843,3.395,6.2,6.2,0,0,1,.588,4.475,6.133,6.133,0,0,1-3.954,4.472,13.738,13.738,0,0,1-7.937.283l-14.4-3.4,0.061-1.3a21.666,21.666,0,0,1,3.741-1.048l4.78-20.243L94.968,315.8l0.526-2.054q5.29,0.92,13.231,2.8a12.964,12.964,0,0,1,6.761,3.569,5.745,5.745,0,0,1,1.633,5.44,6.131,6.131,0,0,1-2.1,3.307A5.931,5.931,0,0,1,110.922,330.209Zm-8.236,8.947,0.575,0.177a3.7,3.7,0,0,0,3.2-.518,4.4,4.4,0,0,0,1.684-2.6,4.9,4.9,0,0,0-.463-3.521,4.129,4.129,0,0,0-2.716-2.161l-2.959-.7-1.977,8.37ZM104.4,319.71l-1.729,7.318,1.752,0.414a4.915,4.915,0,0,0,3.707-.3,3.721,3.721,0,0,0,1.787-2.435,5.007,5.007,0,0,0-.123-2.7,3.376,3.376,0,0,0-1.52-2Z" fill="#eaeaea"/><path d="M145.588,340.271a56.826,56.826,0,0,1-1.212,8.245l-21.954-1.945-0.126-1.3a21.649,21.649,0,0,1,3.553-1.572l1.832-20.679-2.949-.7,0.227-2.108,22.034,1.952-0.042.92a33.488,33.488,0,0,1-1.389,7.064l-3.984-.353-0.357-4.128-6.416-1.01-0.713,8.048,8.388,0.061-0.382,4.3-8.295-1.1-0.692,7.81,6.74,0.075,1.822-4.256Z" fill="#eaeaea"/><path d="M181.612,345.327l0.072,2.119-8.947.473-5.806-9.787-2.634.18,0.391,7.39,3.343,0.344,0.072,2.119-13.661.723-0.308-1.266a21.657,21.657,0,0,1,3.3-2.057l-1.1-20.731-3.02-.28-0.071-2.119,13.523-1.036a12.6,12.6,0,0,1,8.015,1.96,7.312,7.312,0,0,1,2.241,10.176,9.121,9.121,0,0,1-3.634,3.256l5.768,8.308ZM164.1,334.6a9.146,9.146,0,0,0,2.251.161q4.714-.249,4.458-5.082a6.173,6.173,0,0,0-2.3-4.886l-4.882.859Z" fill="#eaeaea"/><path d="M223.678,330.695a7.164,7.164,0,0,1-1.256,6.489,11.915,11.915,0,0,1-6.693,4.143,23.872,23.872,0,0,1-5.245.749,16.543,16.543,0,0,1-5.084-.5l0.019-.088-0.351-1.148a25.049,25.049,0,0,1-.979-6.405l3.129-.843,4.019,4.925a15.491,15.491,0,0,0,4.709-.356,3.2,3.2,0,0,0,1.306-3.458q-0.52-1.931-3.521-2.615l-5.326-1.01-1.734-.444q-4.761-1.368-5.831-5.348a7.1,7.1,0,0,1,1.357-6.5,12.473,12.473,0,0,1,6.9-4.22,24.343,24.343,0,0,1,8.661-.758,39.44,39.44,0,0,1,1.175,7.6l-3.554.957-2.774-4.307a13.59,13.59,0,0,0-4.71.356,3.346,3.346,0,0,0-.958,3.365,2.658,2.658,0,0,0,1.794,1.815,24.815,24.815,0,0,0,4.54,1.015,31.829,31.829,0,0,1,5.022,1.113,9.25,9.25,0,0,1,3.357,1.934A7.137,7.137,0,0,1,223.678,330.695Z" fill="#eaeaea"/><path d="M261.971,320.415l0.836,1.949-12.76,5.761-0.746-1.067a21.672,21.672,0,0,1,2.325-3.113l-3.357-7.437-8.859,4,3.539,7.839,3.564-.951,0.836,1.948-12.76,5.761-0.745-1.067a21.521,21.521,0,0,1,2.325-3.112l-8.526-18.885-3,.83L223.8,310.92l12.25-5.53,0.745,1.068a17.716,17.716,0,0,1-2.325,3.112l3.391,7.51,8.859-4L243.1,305.06l-3,.829-0.836-1.948,12.249-5.53,0.745,1.067a17.66,17.66,0,0,1-2.325,3.113l8.478,18.774Z" fill="#eaeaea"/><path d="M265.14,288.309a12.623,12.623,0,0,1,10.2-2.146,14.536,14.536,0,0,1,9,6.4,13.639,13.639,0,0,1,2.642,10.25,12.637,12.637,0,0,1-5.686,8.458,13.057,13.057,0,0,1-10.155,2.356,13.626,13.626,0,0,1-8.8-6.107,14.425,14.425,0,0,1-2.757-10.56A12.4,12.4,0,0,1,265.14,288.309Zm0.025,5.325a7.428,7.428,0,0,0,.414,3.916,19.642,19.642,0,0,0,2.572,5,15.269,15.269,0,0,0,5.869,5.453,5.527,5.527,0,0,0,7.036-1.665,8.653,8.653,0,0,0-.387-4.3,18.44,18.44,0,0,0-2.518-5.066,15.164,15.164,0,0,0-5.773-5.349,5.174,5.174,0,0,0-5.467.172A6.553,6.553,0,0,0,265.165,293.634Z" fill="#eaeaea"/><path d="M298.954,283.778l4.535,4.572,4-2.9,1.465,1.533L298.3,297.55l-1.071-.74a21.821,21.821,0,0,1,1-3.475l-14.706-14.823-2.411,1.772-1.465-1.533,9.572-9.946a11.555,11.555,0,0,1,7.241-3.719,8.021,8.021,0,0,1,6.68,2.473,7.579,7.579,0,0,1,2.209,6.288,11.172,11.172,0,0,1-3.394,6.888Zm-9.437-9.513,6.592,6.645a11.92,11.92,0,0,0,2.128-1.66,3.929,3.929,0,0,0,1.329-3.318,5.544,5.544,0,0,0-1.7-3.3,9.145,9.145,0,0,0-2.609-1.835,4.166,4.166,0,0,0-2.643-.448Z" fill="#eaeaea"/><path d="M71.075,253.844c-0.583,3.286-6.147,4.875-10.175,4.875-2.968,0-6.094-.689-8-2.119-4.028,3.6-6.89,8.426-6.89,11.87,0,3.074,1.907,4.293,4.556,4.293a13.705,13.705,0,0,0,7.685-2.758,32.84,32.84,0,0,0,3.286-2.649c0.74-.689,1-0.9,1.164-0.74a0.9,0.9,0,0,1-.424.687,37.5,37.5,0,0,1-3.814,3.18,15.286,15.286,0,0,1-8,3.021c-4.4.159-7.471-1.43-7.63-5.352-0.159-4.662,4.291-9.7,8.691-12.878a5.6,5.6,0,0,1-1.326-3.339c0-2.968,2.545-4.928,5.407-4.928a8.056,8.056,0,0,1,6.518,3.339,14.039,14.039,0,0,1,2.809-.477c3.339-.212,6.728.742,6.147,3.975h0Zm-15.9-6.147a4.176,4.176,0,0,0-4.293,4.056q0,0.118,0,.235a4.953,4.953,0,0,0,1.061,2.968,35.447,35.447,0,0,1,9.327-4.4,8.388,8.388,0,0,0-6.094-2.861h0v0Zm9.963,2.543a9.449,9.449,0,0,0-2.811.53,8.509,8.509,0,0,1,.9,2.915c0.106,0.846,0,1.377-.159,1.324a3.644,3.644,0,0,1-.212-1.058,8.191,8.191,0,0,0-1.271-2.915,28.228,28.228,0,0,0-8.265,5.2c1.856,1.377,4.824,1.96,7.685,1.96,3.869,0,7.524-1.854,8.107-4.45,0.53-2.439-1.165-3.551-3.973-3.5h0v0ZM79.5,267.14c-0.636.636-1.96,1.75-3.233,2.755-0.955.742-2.808,2.121-4.556,2.121-1.061,0-1.644-.477-1.644-1.273a3.989,3.989,0,0,1,.848-2.172,22.75,22.75,0,0,1,2.49-2.755l-0.053-.053c-1.061.849-2.862,2.278-4.24,3.339-2.172,1.642-4.079,2.915-5.67,2.915-1.112,0-1.8-.53-1.748-1.485a4.544,4.544,0,0,1,1-2.172,29.37,29.37,0,0,1,3.763-4.24,16.888,16.888,0,0,0-2.278,1.591c-0.8.636-1.379,1.112-1.907,1.589-0.424.371-.636,0.53-0.8,0.424-0.106-.106,0-0.318.583-0.849a43.032,43.032,0,0,1,3.761-2.968,4.781,4.781,0,0,1,3.074-1.165c1.114,0,1.22.159,0.583,0.846-0.689.742-1.695,1.962-2.755,3.286a21.656,21.656,0,0,0-1.96,2.862,0.886,0.886,0,0,0-.053.955,1.15,1.15,0,0,0,1.218-.106,30.529,30.529,0,0,0,3.981-2.753c2.543-1.96,4.028-3.286,5.723-4.609a2.16,2.16,0,0,1,1.538-.583c0.9,0,1.43.106,0.8,0.848-0.955,1.165-1.75,2.013-2.811,3.39a24.625,24.625,0,0,0-1.96,2.7,1,1,0,0,0-.159,1.165,1.192,1.192,0,0,0,1.22-.159A15.263,15.263,0,0,0,76.645,269c1.061-.848,1.96-1.644,2.543-2.174,0.318-.316.636-0.528,0.742-0.369,0.159,0.106-.265.528-0.424,0.687H79.5Zm9.859-8.266c-1.22,1.379-2.174,2.543-3.233,3.922,1.218-.053,2.172-0.053,3.021-0.053,0.422,0,.793.053,0.74,0.318-0.053.318-.528,0.265-0.952,0.265-1.167,0-2.015,0-3.233.053a39.513,39.513,0,0,0-3.816,5.829c-0.318.581-.477,1.324-0.053,1.536a1.77,1.77,0,0,0,1.326-.212,14.284,14.284,0,0,0,2.384-1.589c0.952-.742,1.854-1.591,2.49-2.121,0.265-.21.583-0.528,0.742-0.369,0.106,0.106,0,.263-0.371.634a40.591,40.591,0,0,1-3.233,2.808c-0.955.742-2.862,2.174-4.877,2.174a1.348,1.348,0,0,1-1.589-1.485c0.106-1.324,1.326-3.233,2.862-5.246-0.848.689-1.483,1.273-2.119,1.854-0.371.318-.53,0.371-0.636,0.265s0-.318.371-0.636c1.43-1.271,2.862-2.543,3.869-3.443-0.689,0-1.273.053-1.909,0.053-0.371,0-.636,0-0.583-0.265,0.053-.212.583-0.265,1.432-0.318,0.689-.053,1.273-0.053,1.483-0.053a71.367,71.367,0,0,1,4.983-5.511c0.955-.955,2.225-2.174,3.339-2.174a0.737,0.737,0,0,1,.793.318c-0.634.583-2.013,2.066-3.231,3.445h0Zm10.969,8.425a26.977,26.977,0,0,1-2.7,2.121,19.134,19.134,0,0,1-3.339,1.8,12.6,12.6,0,0,1-4.45.955c-2.808,0-3.392-1.7-3.18-3.18a2.993,2.993,0,0,1,2.7-2.755,0.983,0.983,0,0,1,1.008,1.165,2,2,0,0,1-1.165,1.327,2.25,2.25,0,0,0-1.22,1.589,1.3,1.3,0,0,0,1.538,1.326c1.058,0,2.384-.848,3.551-2.861,0.952-1.538,1.907-4.718,2.49-5.4v-0.054a24.185,24.185,0,0,1-2.543,2.013A18.768,18.768,0,0,1,91,266.618c-0.212.1-.424,0.21-0.53,0.051-0.053-.157,0-0.263.265-0.422a26.657,26.657,0,0,0,2.227-1.485c0.952-.689,1.907-1.483,3.127-2.543a3.218,3.218,0,0,1,.846-0.9,2.8,2.8,0,0,1,1.538-.583c1.218,0,.424.689-0.265,1.114a11.017,11.017,0,0,0-1.273.8,1.706,1.706,0,0,0-.371,1.43,9.454,9.454,0,0,1-.475,4.346,5.754,5.754,0,0,1-1.7,2.172,13.569,13.569,0,0,0,2.331-1.165,23.716,23.716,0,0,0,3.5-2.651c0.265-.21.53-0.475,0.689-0.316a1.035,1.035,0,0,1-.583.846h0V267.3Zm23.268,0.053c-0.689.636-1.962,1.75-2.968,2.543-1.061.848-2.811,2.121-4.558,2.121a1.3,1.3,0,0,1-1.524-1.028q-0.008-.043-0.014-0.086a2.915,2.915,0,0,1,.742-1.907l-0.053-.053c-1.377,1.218-3.814,2.968-5.829,3.074-1.165.053-2.384-.424-2.172-2.121a5.469,5.469,0,0,1,1.483-2.755l-0.053-.053c-0.159.159-.369,0.371-0.687,0.636-0.212.159-.371,0.265-0.477,0.159-0.106-.159.159-0.477,0.742-1.008a19.952,19.952,0,0,1,1.589-1.271,24,24,0,0,1,2.437-1.485c2.068-1.058,3.922-1.7,5.3-1.483a1.42,1.42,0,0,1,1.112,2.013c1.273-1.324,2.172-2.013,3.021-2.013,1.114-.053,1.22.212,0.689,0.848-0.689.793-1.854,2.119-2.968,3.5a19.489,19.489,0,0,0-1.854,2.6c-0.371.634-.371,1.058-0.159,1.218a1.355,1.355,0,0,0,1.218-.212A16.173,16.173,0,0,0,121,268.947c1.114-.9,1.962-1.644,2.545-2.174,0.316-.263.581-0.528,0.74-0.369s-0.106.422-.687,0.952h0v0Zm-5.3-3.233a0.822,0.822,0,0,0-.952-0.952c-1.061,0-2.968,1.43-4.877,3.339-2.172,2.119-3.074,3.5-2.968,4.185a0.608,0.608,0,0,0,.676.532l0.013,0c1.008,0,3.021-1.167,4.45-2.49,1.7-1.485,3.6-3.763,3.657-4.612h0Zm24.167,3.021a42.017,42.017,0,0,1-3.18,2.755c-1.061.8-3.127,2.121-4.769,2.121a1.328,1.328,0,0,1-1.591-1.379c0.053-1.165,1.22-2.49,2.225-3.71,0.8-.952,1.591-1.854,2.227-2.6,0.212-.265.316-0.583,0.053-0.742a1.9,1.9,0,0,0-1.379.318,26.135,26.135,0,0,0-4.134,2.7c-2.331,1.8-3.6,3.021-5.935,4.822a1.908,1.908,0,0,1-1.377.477c-0.742,0-1.114-.106-0.689-0.848a35.791,35.791,0,0,1,2.331-3.551c0.583-.8,1.538-2.013,2.121-2.755a0.936,0.936,0,0,0,.369-0.9,0.639,0.639,0,0,0-.793.053,12.11,12.11,0,0,0-2.068,1.432c-0.687.583-1.536,1.324-2.278,2.013-0.53.477-.742,0.636-0.9,0.477-0.106-.159.159-0.424,0.8-1.008s1.8-1.7,2.755-2.437c1.432-1.112,2.49-1.748,3.6-1.748a1.134,1.134,0,0,1,1.326,1.165,4.434,4.434,0,0,1-1.114,2.28c-0.8,1.058-1.907,2.49-2.49,3.339l0.053,0.053c1.271-1.061,3.021-2.6,4.875-3.975s4.187-2.861,5.776-2.861c1.114,0,1.75.53,1.644,1.43-0.159.955-1.273,2.174-2.121,3.233a23.492,23.492,0,0,0-1.748,2.333c-0.424.687-.424,1.005-0.212,1.165a1.466,1.466,0,0,0,1.273-.212,14.8,14.8,0,0,0,2.543-1.642c0.9-.689,1.96-1.644,2.543-2.174,0.424-.369.583-0.422,0.689-0.316s-0.053.316-.424,0.687h0v0.005Zm19.98-11.764c-1.748,2.015-3.551,4.187-6.625,8.109-1.642,2.119-3.92,5.246-4.4,6.094-0.371.634-.371,1.058-0.159,1.218a1.353,1.353,0,0,0,1.217-.212,16.283,16.283,0,0,0,2.386-1.642c1.112-.9,1.96-1.644,2.543-2.174,0.318-.263.583-0.528,0.742-0.369s-0.106.422-.689,0.952c-0.689.636-1.962,1.75-2.968,2.543-1.061.848-2.808,2.121-4.558,2.121a1.3,1.3,0,0,1-1.523-1.03q-0.008-.042-0.013-0.084a2.9,2.9,0,0,1,.742-1.907l-0.053-.053c-1.379,1.218-3.816,2.968-5.831,3.074-1.165.053-2.384-.424-2.172-2.121a5.459,5.459,0,0,1,1.485-2.755l-0.053-.053c-0.159.159-.371,0.371-0.689,0.636-0.212.159-.371,0.265-0.477,0.159a1.806,1.806,0,0,1,.849-1.114c0.159-.157.952-0.793,1.483-1.165a19.087,19.087,0,0,1,2.439-1.485c1.854-.952,3.814-1.7,5.3-1.483a1.376,1.376,0,0,1,1.165,1.8h0.055a107.346,107.346,0,0,1,6.784-8.531,81.06,81.06,0,0,1,6.306-6.572,2.715,2.715,0,0,1,1.962-.9,0.68,0.68,0,0,1,.793.371c-1.43,1.379-4.079,4.293-6.041,6.572h0Zm-11.234,7.791c-1.061,0-2.968,1.43-4.877,3.339-2.172,2.119-3.074,3.5-2.968,4.185a0.608,0.608,0,0,0,.676.532l0.013,0c1.008,0,3.021-1.167,4.452-2.49,1.7-1.485,3.6-3.763,3.657-4.612a0.823,0.823,0,0,0-.955-0.952h0Zm47.483-7.473c-0.369.159-1.005,0.424-1.43,0.583-1.008,1.854-1.856,3.657-2.7,5.246-4.081,7.95-10.229,11.077-17.118,11.552-2.809.159-6.306-.159-8.638-1.8a17.521,17.521,0,0,0-4.238,4.928c-0.159.318-.265,0.53-0.424,0.477a0.667,0.667,0,0,1,0-.636,15.274,15.274,0,0,1,3.973-5.3,6.125,6.125,0,0,1-1.96-4.981c0.424-5.2,7.155-7.95,11.075-8.215,2.809-.263,7.049.371,8.587,2.7,2.915-1.22,5.458-2.333,8.266-3.445a25.044,25.044,0,0,1,6.147-6.784,6.923,6.923,0,0,1,3.286-1.273c0.848-.053,1.907.265,1.8,1.432-0.159,1.748-3.074,4.028-6.625,5.511h0v0Zm-21.462,2.338c-3.708.265-8.85,2.6-9.221,7.526a6.222,6.222,0,0,0,1.167,4.238,15.423,15.423,0,0,1,1.642-1.377c1.008-.742,1.856-1.326,3.074-2.119a3.347,3.347,0,0,1-1.112-2.015c-0.053-.265,0-0.53.159-0.53a0.53,0.53,0,0,1,.159.424,3.654,3.654,0,0,0,1.271,1.8,70.09,70.09,0,0,1,7.1-3.71l3.5-1.591c-1.22-2.384-5.14-2.915-7.738-2.649h0v0Zm7.9,3.233c-1.114.53-2.278,1.061-3.551,1.644a58.076,58.076,0,0,0-6.466,3.657,7.643,7.643,0,0,0,3.5.9c2.915,0,6.518-1.907,6.678-4.928a4.64,4.64,0,0,0-.159-1.273h0Zm8.638-3.71c-2.6,1.061-4.981,2.068-7.579,3.286a4.131,4.131,0,0,1,.318,1.644c-0.106,3.551-4.344,5.511-7.789,5.511a7.6,7.6,0,0,1-4.028-1.114c-1.111.742-2.119,1.432-3.18,2.227-0.636.477-1.165,0.9-1.748,1.377,1.96,1.909,5.352,2.331,8.16,2.121,5.617-.477,9.7-4.134,13.514-11.13,0.8-1.377,1.536-2.7,2.331-3.869v-0.056h0v0Zm9.751-8.319a4.72,4.72,0,0,0-2.437,1.485,26.383,26.383,0,0,0-3.5,4.822c0.265-.106.689-0.265,0.952-0.371,2.917-1.218,5.99-3.233,6.2-4.981a0.905,0.905,0,0,0-1.218-.955h0Zm20.088-5.776c-0.424,2.543-5.513,6.784-10.865,11.234-3.233,2.651-6.89,5.2-10.81,8.64-0.9,1.005-3.127,4.238-4.4,6.094l0.053,0.053c1.273-1.061,3.021-2.6,4.877-3.975s4.185-2.861,5.776-2.861c1.112,0,1.748.53,1.642,1.43-0.159.955-1.271,2.174-2.119,3.233a19.923,19.923,0,0,0-1.75,2.333c-0.369.634-.422,1.005-0.212,1.165a1.466,1.466,0,0,0,1.273-.212,13.483,13.483,0,0,0,2.543-1.642c0.9-.689,1.962-1.644,2.543-2.174,0.424-.369.583-0.422,0.689-0.316s-0.053.316-.424,0.687a42.017,42.017,0,0,1-3.18,2.755c-1.058.8-3.127,2.121-4.768,2.121-1.061,0-1.644-.477-1.591-1.379,0.053-1.165,1.22-2.49,2.227-3.71,0.793-.952,1.589-1.8,2.225-2.6,0.212-.265.318-0.583,0.053-0.742a1.9,1.9,0,0,0-1.379.318,26.127,26.127,0,0,0-4.132,2.7c-2.333,1.8-3.6,3.021-5.935,4.822a1.913,1.913,0,0,1-1.379.477c-0.742,0-1.061-.106-0.689-0.848a38.167,38.167,0,0,1,2.174-3.551c0.422-.636.952-1.324,1.589-2.119V265.34c-0.8.689-1.43,1.273-2.013,1.8-0.318.265-.477,0.318-0.583,0.159a0.561,0.561,0,0,1,.265-0.477c0.212-.21,2.225-1.96,3.445-2.968,1.8-2.384,4.026-5.246,6.413-7.948,3.074-3.551,9.539-10.335,12.294-12.242,1.483-1.061,2.968-2.119,4.5-2.119a1.512,1.512,0,0,1,1.644,1.907h0Zm-2.227-1.326c-0.9,0-2.331,1.061-3.443,2.121-1.75,1.748-4.293,4.291-7.049,7.577-3.869,4.612-5.246,6.306-8.109,10.122,5.036-4.4,7.049-5.723,9.486-7.842,5.089-4.4,9.8-8.64,10.016-10.971a0.827,0.827,0,0,0-.9-1.008h0Zm6.043,25.225c-0.689.636-1.96,1.75-2.968,2.543-1.061.848-2.809,2.121-4.559,2.121a1.3,1.3,0,0,1-1.523-1.03q-0.008-.042-0.013-0.084A2.9,2.9,0,0,1,219.1,269l-0.053-.053c-1.379,1.218-3.816,2.968-5.829,3.074-1.167.053-2.386-.424-2.174-2.121a5.459,5.459,0,0,1,1.485-2.755l-0.053-.053c-0.159.159-.371,0.371-0.689,0.636-0.212.159-.371,0.265-0.477,0.159-0.106-.159.159-0.477,0.742-1.008,0.159-.159,1.061-0.9,1.589-1.271a23.816,23.816,0,0,1,2.439-1.485c2.066-1.058,3.92-1.7,5.3-1.483a1.42,1.42,0,0,1,1.114,2.013c1.271-1.324,2.172-2.013,3.021-2.013,1.112-.053,1.218.212,0.687,0.848-0.687.793-1.854,2.119-2.968,3.5a19.89,19.89,0,0,0-1.854,2.6c-0.371.634-.371,1.058-0.159,1.218a1.358,1.358,0,0,0,1.22-.212,16.4,16.4,0,0,0,2.384-1.642c1.114-.9,1.96-1.644,2.543-2.174,0.318-.263.583-0.528,0.742-0.369s-0.106.422-.689,0.952h0v0Zm-5.3-3.233a0.823,0.823,0,0,0-.955-0.952c-1.061,0-2.967,1.43-4.874,3.339-2.174,2.119-3.074,3.5-2.968,4.185a0.606,0.606,0,0,0,.672.532l0.015,0c1.008,0,3.021-1.167,4.452-2.49,1.7-1.485,3.6-3.763,3.657-4.612h0Zm21.091,3.127a10.736,10.736,0,0,1-1.271,1.061,4.8,4.8,0,0,1-2.808,1.008,1.666,1.666,0,0,1-1.7-1.008q-0.875.557-2.225,1.273a29.641,29.641,0,0,1-5.087,2.225,7.8,7.8,0,0,1-1.8.371,0.675,0.675,0,0,1-.793-0.636,1.372,1.372,0,0,1,.475-0.955c0.742-.848,1.75-2.013,2.6-3.074a20.111,20.111,0,0,0,1.96-2.915,0.616,0.616,0,0,0,0-.742,0.85,0.85,0,0,0-.8.053,11.216,11.216,0,0,0-2.066,1.432c-0.849.689-1.962,1.7-2.225,1.96-0.212.212-.424,0.318-0.53,0.212s0-.318.212-0.53c0.318-.318,2.066-1.907,2.808-2.49,1.271-1.005,2.6-1.854,3.71-1.854a1.418,1.418,0,0,1,1.483,1.854,7.791,7.791,0,0,1-1.854,3.392,27.989,27.989,0,0,1-3.021,3.233,25.587,25.587,0,0,0,4.768-2.066,18.419,18.419,0,0,0,2.331-1.432,6.638,6.638,0,0,1,1.22-3.021c0.955-1.377,1.854-2.119,2.543-1.96,0.636,0.159.583,1.112,0.159,1.907A10.017,10.017,0,0,1,237.912,268a1.163,1.163,0,0,0,1.167.848,4.043,4.043,0,0,0,2.543-.848,13.3,13.3,0,0,0,1.324-1.114,0.855,0.855,0,0,1,.8-0.422,1.211,1.211,0,0,1-.53.793h0Zm11.183,0.106a36.089,36.089,0,0,1-3.339,2.649,10.926,10.926,0,0,1-5.988,2.174c-1.96,0-2.862-.742-2.808-2.121a5.527,5.527,0,0,1,1.591-3.286l-0.053-.053c-0.159.159-.742,0.689-1.061,0.955-0.265.212-.424,0.265-0.53,0.159a0.6,0.6,0,0,1,.318-0.583,20.009,20.009,0,0,1,1.962-1.589,23.133,23.133,0,0,1,2.6-1.591,10.71,10.71,0,0,1,4.556-1.483H251.7a1.336,1.336,0,0,1,1.538,1.43c-0.106,1.379-1.8,2.439-3.392,3.233a27.45,27.45,0,0,1-4.559,1.7,2.967,2.967,0,0,0-.318,1.218,1.093,1.093,0,0,0,1.22,1.22,9.8,9.8,0,0,0,4.824-1.96,33.854,33.854,0,0,0,3.231-2.545c0.318-.263.477-0.316,0.583-0.212a0.721,0.721,0,0,1-.424.689h0Zm-5.193-.583a4.557,4.557,0,0,0,2.172-2.755,0.579,0.579,0,0,0-.634-0.74,4.717,4.717,0,0,0-2.333,1.536,20.808,20.808,0,0,0-2.809,3.551,12.51,12.51,0,0,0,3.6-1.591h0Zm17.383,0.53a27.232,27.232,0,0,1-2.7,2.121,19.215,19.215,0,0,1-3.339,1.8,12.617,12.617,0,0,1-4.453.955c-2.808,0-3.39-1.7-3.18-3.18a3,3,0,0,1,2.7-2.755,0.982,0.982,0,0,1,1.005,1.165,2,2,0,0,1-1.162,1.32,2.25,2.25,0,0,0-1.22,1.589,1.3,1.3,0,0,0,1.538,1.326c1.059,0,2.384-.848,3.549-2.861,0.955-1.538,1.909-4.718,2.492-5.4v-0.054a24.012,24.012,0,0,1-2.545,2.013,18.575,18.575,0,0,1-2.013,1.273c-0.212.1-.424,0.21-0.53,0.051-0.053-.157,0-0.263.265-0.422a26.347,26.347,0,0,0,2.225-1.485c0.954-.689,1.909-1.483,3.127-2.543a3.232,3.232,0,0,1,.848-0.9,2.8,2.8,0,0,1,1.538-.583c1.218,0,.422.689-0.265,1.114a11.009,11.009,0,0,0-1.273.8,1.7,1.7,0,0,0-.371,1.43,9.426,9.426,0,0,1-.477,4.346,5.748,5.748,0,0,1-1.7,2.172,13.644,13.644,0,0,0,2.331-1.165,23.825,23.825,0,0,0,3.5-2.651c0.265-.21.53-0.475,0.689-0.316a1.035,1.035,0,0,1-.583.846h0v-0.006Z" fill="#eaeaea"/></svg>